HIERARCHY
ROOT Hips
{
	OFFSET 0.00000 0.00000 0.00000
	CHANNELS 6 Xposition Yposition Zposition Zrotation Yrotation Xrotation 
	JOINT LHipJoint
	{
		OFFSET 0 0 0
		CHANNELS 3 Zrotation Yrotation Xrotation
		JOINT LeftHip
		{
			OFFSET 1.37590 -1.78394 0.89329
			CHANNELS 3 Zrotation Yrotation Xrotation
			JOINT LeftKnee
			{
				OFFSET 2.47928 -6.81178 0.00000
				CHANNELS 3 Zrotation Yrotation Xrotation
				JOINT LeftAnkle
				{
					OFFSET 2.63345 -7.23535 0.00000
					CHANNELS 3 Zrotation Yrotation Xrotation
					JOINT LeftToe
					{
						OFFSET 0.23938 -0.65768 2.27012
						CHANNELS 3 Zrotation Yrotation Xrotation
						End Site
						{
							OFFSET 0.00000 -0.00000 1.18363
						}
					}
				}
			}
		}
	}
	JOINT RHipJoint
	{
		OFFSET 0 0 0
		CHANNELS 3 Zrotation Yrotation Xrotation
		JOINT RightHip
		{
			OFFSET -1.33617 -1.78394 0.89329
			CHANNELS 3 Zrotation Yrotation Xrotation
			JOINT RightKnee
			{
				OFFSET -2.56922 -7.05888 0.00000
				CHANNELS 3 Zrotation Yrotation Xrotation
				JOINT RightAnkle
				{
					OFFSET -2.56568 -7.04915 0.00000
					CHANNELS 3 Zrotation Yrotation Xrotation
					JOINT RightToe
					{
						OFFSET -0.27533 -0.75646 2.18105
						CHANNELS 3 Zrotation Yrotation Xrotation
						End Site
						{
							OFFSET -0.00000 -0.00000 1.15233
						}
					}
				}
			}
		}
	}
	JOINT lowerback
	{
		OFFSET 0 0 0
		CHANNELS 3 Zrotation Yrotation Xrotation
		JOINT Chest
		{
			OFFSET 0.06190 2.15152 -0.00935
			CHANNELS 3 Zrotation Yrotation Xrotation
			JOINT Chest2
			{
				OFFSET 0.06334 2.15332 0.00872
				CHANNELS 3 Zrotation Yrotation Xrotation
				JOINT lowerneck
				{
					OFFSET 0 0 0
					CHANNELS 3 Zrotation Yrotation Xrotation
					JOINT Neck
					{
						OFFSET -0.04202 1.66908 0.23524
						CHANNELS 3 Zrotation Yrotation Xrotation
						JOINT Head
						{
							OFFSET 0.07510 1.69357 -0.24440
							CHANNELS 3 Zrotation Yrotation Xrotation
							End Site
							{
								OFFSET 0.02556 1.71719 -0.11000
							}
						}
					}
				}
				JOINT LeftCollar
				{
					OFFSET 0 0 0
					CHANNELS 3 Zrotation Yrotation Xrotation
					JOINT LeftShoulder
					{
						OFFSET 3.67168 1.26306 -0.41342
CHANNELS 3 Zrotation Xrotation Yrotation
						JOINT LeftElbow
						{
OFFSET 0 -4.685100 -0.000000
CHANNELS 3 Zrotation Xrotation Yrotation
							JOINT LeftWrist
							{
OFFSET 0 -3.396260 -0.000000
CHANNELS 3 Zrotation Xrotation Yrotation
								JOINT lhand
								{
									OFFSET 0 0 0
CHANNELS 3 Zrotation Xrotation Yrotation
									JOINT LFingers
									{
OFFSET 0 -0.486080 -0.000000
CHANNELS 3 Zrotation Xrotation Yrotation
										End Site
										{
OFFSET 0 -0.391890 -0.000000
										}
									}
								}
								JOINT LThumb
								{
OFFSET 0 0.000000 0.000000
CHANNELS 3 Zrotation Xrotation Yrotation
									End Site
									{
OFFSET 0 -0.397870 0.397870
									}
								}
							}
						}
					}
				}
				JOINT RightCollar
				{
					OFFSET 0 0 0
					CHANNELS 3 Zrotation Yrotation Xrotation
					JOINT RightShoulder
					{
						OFFSET -3.04136 1.42992 -0.76390
CHANNELS 3 Zrotation Xrotation Yrotation
						JOINT RightElbow
						{
OFFSET 0 -5.555760 -0.000000
CHANNELS 3 Zrotation Xrotation Yrotation
							JOINT RightWrist
							{
OFFSET 0 -3.327740 -0.000000
CHANNELS 3 Zrotation Xrotation Yrotation
								JOINT rhand
								{
									OFFSET 0 0 0
CHANNELS 3 Zrotation Xrotation Yrotation
									JOINT RFingers
									{
OFFSET 0 -0.507630 -0.000000
CHANNELS 3 Zrotation Xrotation Yrotation
										End Site
										{
OFFSET 0 -0.409260 -0.000000
										}
									}
								}
								JOINT RThumb
								{
OFFSET 0 0.000000 0.000000
CHANNELS 3 Zrotation Xrotation Yrotation
									End Site
									{
OFFSET 0 -0.415510 0.415510
									}
								}
							}
						}
					}
				}
			}
		}
	}
}
MOTION
Frames: 6
Frame Time: .0083333
42.1963 17.5894 4.5787 -79.2790 -82.0226 89.3684 0.0000 0.0000 0.0000 -7.2871 -6.7682 -20.1632 3.8577 11.9687 35.6212 0.8473 -0.0833 -17.3727 0.2166 -2.9958 -8.2670 0.0000 0.0000 0.0000 31.0772 4.6089 -11.0902 -1.1904 -6.9236 19.4893 -0.5744 -5.2657 -17.2035 -0.6508 -5.1605 14.3669 4.0338 -0.3745 -2.1521 5.1483 -0.6986 -1.5863 3.0253 -0.4178 -0.4045 -4.3869 -0.2697 -19.9528 4.4693 -0.0824 17.6444 2.2356 0.1393 8.8074 0.0000 -0.0000 0.0000 -4.3218 0.3094 -8.1004 14.1820 -22.9942 2.8988 13.2707 35.5413 -19.1067 0.0 0.0 0.0 -7.1250 0.0 0.0 -14.6275 49.0067 1.4741 0.0000 -0.0000 0.0000 -6.5741 -1.1673 7.533 -11.8577 -19.591 -2.0543 -12.8462 24.2177 24.1539 0.0 0.0 0.0 7.1250 0.0 -0.0 17.2692 53.8423 -3.8426
42.1819 17.5815 4.5641 -78.8604 -81.8254 88.7530 0.0000 0.0000 0.0000 -6.9392 -6.8637 -21.3342 4.3432 12.6036 37.9022 0.7986 0.0535 -16.9114 0.3584 -3.8461 -10.6441 0.0000 0.0000 0.0000 31.3670 4.3337 -10.8933 -1.1892 -6.9203 19.4793 -0.5842 -5.1418 -17.2264 -0.6795 -5.2707 14.6823 4.2679 -0.3863 -1.8169 5.1575 -0.7014 -1.4336 2.9058 -0.4205 -0.4380 -4.3787 -0.2855 -19.9072 4.4764 -0.1000 17.3817 2.2303 0.1343 8.7104 0.0000 -0.0000 0.0000 -4.4225 0.0334 -7.7604 14.2145 -23.0405 2.9115 13.4581 35.8265 -19.0117 0.0 0.0 0.0 -7.1250 0.0 0.0 -14.4161 48.9408 1.4282 0.0000 -0.0000 0.0000 -6.6572 -1.3131 8.331 -12.0179 -19.8315 -2.1084 -13.1876 24.1849 24.2557 0.0 0.0 0.0 7.1250 0.0 -0.0 16.9845 54.0031 -3.8439
42.1618 17.5745 4.5476 -79.3349 -81.6497 89.0157 0.0000 0.0000 0.0000 -6.5714 -6.8474 -22.4670 4.8420 13.2037 40.1357 0.7495 0.0816 -16.3933 0.4599 -4.3502 -12.0641 0.0000 0.0000 0.0000 31.6675 4.1409 -10.6099 -1.1840 -6.9057 19.4362 -0.5936 -5.0197 -17.2474 -0.7013 -5.3528 14.9176 4.4663 -0.3570 -1.5309 5.1621 -0.6533 -1.2560 2.8016 -0.3966 -0.4186 -4.4125 -0.2594 -19.9088 4.5426 -0.0599 17.1610 2.2606 0.1601 8.6333 -0.0000 -0.0000 0.0000 -4.4529 -0.0205 -8.0019 14.4242 -23.3379 2.9941 13.7808 35.4673 -18.9003 0.0 0.0 0.0 -7.1250 0.0 0.0 -14.0720 48.8784 1.3709 -0.0000 -0.0000 0.0000 -6.7144 -1.508 9.0049 -12.2034 -20.109 -2.1717 -13.283 24.0246 24.2563 0.0 0.0 0.0 7.1250 0.0 -0.0 16.8904 54.0214 -3.8293
42.1419 17.5680 4.5315 -79.9454 -81.5994 89.4739 0.0000 0.0000 0.0000 -6.3350 -6.8858 -23.6442 5.3389 13.7556 42.2671 0.6674 0.3889 -15.5822 0.3147 -3.6063 -9.9716 0.0000 0.0000 0.0000 31.8327 4.0951 -10.3597 -1.1849 -6.9079 19.4429 -0.6055 -4.9759 -17.3523 -0.7132 -5.3973 15.0452 4.5080 -0.2880 -1.3784 5.1390 -0.5620 -1.0334 2.7548 -0.3476 -0.2771 -4.3449 -0.2710 -19.9307 4.4822 -0.0696 16.8445 2.2232 0.1565 8.5301 0.0000 -0.0000 0.0000 -4.4822 -0.2571 -8.253 14.6099 -23.5999 3.0681 13.8722 35.0751 -19.0582 0.0 0.0 0.0 -7.1250 0.0 0.0 -14.0439 49.0477 1.4275 0.0000 -0.0000 0.0000 -6.7974 -1.7933 9.6327 -12.3620 -20.3453 -2.2266 -13.5488 23.9744 24.3979 0.0 0.0 0.0 7.1250 0.0 -0.0 16.7001 54.2074 -3.861
42.1202 17.5626 4.5120 -80.7127 -81.5414 90.1101 0.0000 0.0000 0.0000 -6.0663 -6.9285 -24.8672 5.8638 14.2950 44.4326 0.5894 0.7270 -14.7848 0.5254 -4.6453 -12.8996 0.0000 0.0000 0.0000 32.0204 4.1615 -10.0880 -1.1865 -6.9125 19.4564 -0.6152 -4.9742 -17.4606 -0.7371 -5.4847 15.2964 4.5302 -0.2511 -1.0854 5.1249 -0.4935 -0.9471 2.7301 -0.3132 -0.3542 -4.4797 -0.2406 -19.9191 4.6816 -0.0266 16.7192 2.3171 0.1902 8.4832 0.0000 -0.0000 0.0000 -4.5207 -0.1892 -8.4531 14.8806 -23.9795 3.1773 14.0952 34.6043 -19.2669 0.0 0.0 0.0 -7.1250 0.0 0.0 -13.9107 49.2868 1.4966 0.0000 -0.0000 0.0000 -6.8654 -1.8607 10.2834 -12.5098 -20.5648 -2.2782 -13.9062 24.0904 23.6221 0.0 0.0 0.0 7.1250 0.0 -0.0 15.9551 53.5222 -3.4117
42.0948 17.5586 4.4966 -81.4800 -81.4598 90.7410 0.0000 0.0000 0.0000 -5.7899 -7.0047 -25.9912 6.3660 14.7739 46.4337 0.5142 1.1578 -14.0140 0.4024 -4.0726 -11.2809 0.0000 0.0000 0.0000 32.2006 4.1675 -9.7988 -1.1806 -6.8961 19.4079 -0.6324 -4.8798 -17.5871 -0.7826 -5.6478 15.7657 4.6514 -0.2076 -0.8805 5.0893 -0.4281 -0.7997 2.6265 -0.2794 -0.3194 -4.4204 -0.2079 -19.7180 4.6422 0.0171 16.2539 2.2909 0.2114 8.2887 -0.0000 0.0000 0.0000 -4.5309 -0.2007 -8.6945 15.1658 -24.3766 3.2941 14.1966 34.0324 -19.2667 0.0 0.0 0.0 -7.1250 0.0 0.0 -13.8149 49.3018 1.4911 -0.0000 0.0000 0.0000 -6.9185 -2.0169 11.0691 -12.7449 -20.9123 -2.3614 -14.0497 23.794 23.9845 0.0 0.0 0.0 7.1250 0.0 -0.0 15.9924 53.9003 -3.5695
